<?xml version="1.0" encoding="UTF-8" standalone="no"?>
<svg
   fill="none"
   height="24"
   viewBox="0 0 24 24"
   width="24"
   version="1.1"
   id="svg18"
   sodipodi:docname="math.svg"
   inkscape:version="1.2.1 (9c6d41e410, 2022-07-14)"
   xmlns:inkscape="http://www.inkscape.org/namespaces/inkscape"
   xmlns:sodipodi="http://sodipodi.sourceforge.net/DTD/sodipodi-0.dtd"
   xmlns="http://www.w3.org/2000/svg"
   xmlns:svg="http://www.w3.org/2000/svg">
  <defs
     id="defs22" />
  <sodipodi:namedview
     id="namedview20"
     pagecolor="#ffffff"
     bordercolor="#000000"
     borderopacity="0.25"
     inkscape:showpageshadow="2"
     inkscape:pageopacity="0.0"
     inkscape:pagecheckerboard="0"
     inkscape:deskcolor="#d1d1d1"
     showgrid="false"
     inkscape:zoom="42.791667"
     inkscape:cx="10.971762"
     inkscape:cy="11.988315"
     inkscape:window-width="2560"
     inkscape:window-height="1369"
     inkscape:window-x="-8"
     inkscape:window-y="-8"
     inkscape:window-maximized="1"
     inkscape:current-layer="g16" />
  <g
     fill="#292d32"
     id="g16">
    <path
       d="m21.6997 6.39014h-7.27c-.41 0-.75-.34-.75-.75s.34-.75.75-.75h7.27c.41 0 .75.34.75.75s-.34.75-.75.75z"
       id="path2"
       style="fill:#cccccc" />
    <path
       d="m9.58078 6.39014h-7.28c-.41 0-.75-.34-.75-.75s.34-.75.75-.75h7.27c.41 0 .75002.34.75002.75s-.33002.75-.74002.75z"
       id="path4"
       style="fill:#cccccc" />
    <path
       d="m21.6997 16.0801h-7.27c-.41 0-.75-.34-.75-.75s.34-.75.75-.75h7.27c.41 0 .75.34.75.75s-.34.75-.75.75z"
       id="path6"
       style="fill:#cccccc" />
    <path
       d="m21.6997 22.1401h-7.27c-.41 0-.75-.34-.75-.75s.34-.75.75-.75h7.27c.41 0 .75.34.75.75s-.34.75-.75.75z"
       id="path8"
       style="fill:#cccccc" />
    <path
       d="m18.0898 10.02c-.41 0-.75-.34-.75-.75v-7.27c0-.41.34-.75.75-.75s.75.34.75.75v7.27c0 .42-.33.75-.75.75z"
       id="path10"
       style="fill:#cccccc" />
    <path
       d="m2.30023 22.7499c-.19 0-.38-.07-.53-.22-.29-.29-.29-.77 0-1.06l7.27-7.27c.29-.29.77001-.29 1.05997 0 .29.29.29.77 0 1.06l-7.26997 7.27c-.14.15-.33.22-.53.22z"
       id="path12"
       style="fill:#cccccc" />
    <path
       d="m9.58 22.7499c-.19 0-.38-.07-.53-.22l-7.27-7.27c-.29-.29-.29-.77 0-1.06s.77-.29 1.06 0l7.27 7.27c.29.29.29.77 0 1.06-.15.15-.34.22-.53.22z"
       id="path14"
       style="fill:#cccccc" />
  </g>
</svg>
